<svg width="512" height="508" viewBox="0 0 512 508" fill="none" xmlns="http://www.w3.org/2000/svg">
<path d="M48.5352 506.794C35.9829 507.524 23.6377 503.351 14.1028 495.155C-4.70092 476.24 -4.70092 445.69 14.1028 426.774L425.842 15.0338C445.399 -3.26683 476.088 -2.24951 494.389 17.308C510.937 34.9937 511.902 62.1771 496.647 80.9904L82.4821 495.155C73.071 503.233 60.9228 507.398 48.5352 506.794Z" fill="white"/>
<path d="M459.792 506.793C447.069 506.74 434.877 501.689 425.843 492.73L14.1027 80.9879C-3.31788 60.6447 -0.949455 30.0292 19.3938 12.607C37.5506 -2.94191 64.3284 -2.94191 82.4837 12.607L496.648 424.347C516.201 442.653 517.212 473.343 498.907 492.896C498.178 493.674 497.426 494.426 496.648 495.154C491.631 499.517 485.77 502.802 479.43 504.804C473.089 506.806 466.405 507.483 459.792 506.793Z" fill="white"/>
</svg>
