<svg width="512" height="512" viewBox="0 0 512 512" fill="none" xmlns="http://www.w3.org/2000/svg">
<g clip-path="url(#clip0_428_199)">
<path d="M512 256C512 338.317 473.14 411.564 412.766 458.397C369.455 492.001 315.068 512 256 512C196.932 512 142.545 492.001 99.234 458.397C38.86 411.564 0 338.317 0 256C0 114.615 114.615 0 256 0C397.385 0 512 114.615 512 256Z" fill="#F2F2F2"/>
<path d="M441.992 119.475L412.766 458.398C369.455 492.002 315.068 512.001 256 512.001C196.932 512.001 142.545 492.002 99.2338 458.398L70.0078 119.475H441.992Z" fill="#006BC0"/>
<path d="M255.996 151.338V505.296L378.268 470.777L405.544 151.338H255.996Z" fill="#0096DC"/>
<path d="M364.035 289.787H275.849L367.998 242.89L371.98 195.746H140.012L144.071 243.811H237.188L147.844 288.484L152.001 337.723H311.375L306.151 396.366L255.996 409.95L203.751 395.321L202.445 358.75H153.777L159.865 430.848L255.996 458.015L352.126 430.848L364.038 289.779L364.035 289.787Z" fill="white"/>
<path d="M165.353 67.2238V33.7868H213.418V15.6758H147.938V85.3348H213.418V67.2238H165.353ZM241.543 42.9298V34.5698H289.347V15.6758H223.867V58.8638H270.8V67.2238H223.867V85.3348H289.347V42.9298H241.543ZM316.253 42.9298V34.5698H364.057V15.6758H298.576V58.8638H345.51V67.2238H298.576V85.3348H364.057V42.9298H316.253Z" fill="#222123"/>
</g>
<defs>
<clipPath id="clip0_428_199">
<rect width="512" height="512" fill="white"/>
</clipPath>
</defs>
</svg>
