<svg width="468" height="469" viewBox="0 0 468 469" fill="none" xmlns="http://www.w3.org/2000/svg">
<path fill-rule="evenodd" clip-rule="evenodd" d="M306.624 468H346C413.336 468 468 413.336 468 346V122C468 54.664 413.336 0 346 0H122C54.664 0 0 54.664 0 122V346C0 413.336 54.664 468 122 468H240C242.652 468 245.196 466.946 247.071 465.071C248.946 463.196 250 460.652 250 458C250 455.348 248.946 452.804 247.071 450.929C245.196 449.054 242.652 448 240 448H122C65.704 448 20 402.296 20 346V122C20 65.704 65.704 20 122 20H346C402.296 20 448 65.704 448 122V346C448 402.296 402.296 448 346 448H306.624C303.972 448 301.428 449.054 299.553 450.929C297.678 452.804 296.624 455.348 296.624 458C296.624 460.652 297.678 463.196 299.553 465.071C301.428 466.946 303.972 468 306.624 468Z" fill="white"/>
<path fill-rule="evenodd" clip-rule="evenodd" d="M296.678 193.449V231.329C296.678 236.849 301.158 241.345 306.678 241.345H356.958L349.966 285.201H306.686C305.372 285.2 304.071 285.458 302.857 285.96C301.643 286.462 300.539 287.198 299.61 288.127C298.681 289.056 297.943 290.158 297.44 291.372C296.937 292.586 296.678 293.887 296.678 295.201V458.081C296.678 463.609 301.158 468.097 306.678 468.097C312.198 468.097 316.678 463.609 316.678 458.089V305.201H358.518C363.43 305.201 367.606 301.617 368.39 296.777L378.55 232.889C378.776 231.461 378.689 230.002 378.296 228.611C377.903 227.22 377.214 225.931 376.274 224.832C375.335 223.733 374.169 222.851 372.857 222.246C371.544 221.642 370.116 221.329 368.67 221.329H316.678V191.537L306.678 201.537L306.934 201.089L316.486 191.049C315.982 180.809 317.446 172.609 325.15 171.929H373.318C378.838 171.929 383.318 167.441 383.318 161.921V102.689C383.317 100.424 382.547 98.227 381.134 96.4569C379.722 94.6868 377.75 93.4486 375.542 92.9449C337.334 84.2089 293.902 86.9609 265.102 103.577C244.094 115.689 230.334 134.801 230.038 161.817V221.329H183.574C178.054 221.329 173.574 225.801 173.574 231.329V295.193C173.574 300.713 178.054 305.193 183.574 305.193H230.038V458.073C230.038 463.601 234.518 468.089 240.046 468.089C245.558 468.089 250.046 463.601 250.046 458.081V295.201C250.046 289.681 245.566 285.201 240.046 285.201H193.582V241.345H240.046C245.566 241.345 250.046 236.857 250.046 231.329V162.001C250.326 137.761 266.302 122.817 287.998 115.001C309.942 107.081 337.558 106.185 363.31 110.857V151.929H324.838C324.63 151.929 324.438 151.929 324.23 151.945C305.87 153.065 295.326 168.113 296.51 192.049C296.526 192.521 296.598 192.993 296.678 193.449Z" fill="white"/>
</svg>
