<svg width="72" height="72" viewBox="0 0 72 72" fill="none" xmlns="http://www.w3.org/2000/svg">
<circle cx="36" cy="36" r="35.5" fill="#323443" stroke="url(#paint0_linear_814_201)"/>
<path fill-rule="evenodd" clip-rule="evenodd" d="M35.9996 50.3002C39.8187 50.3002 43.4814 48.7409 46.1819 45.9654C48.8825 43.1898 50.3996 39.4254 50.3996 35.5002C50.3996 31.575 48.8825 27.8106 46.1819 25.035C43.4814 22.2595 39.8187 20.7002 35.9996 20.7002C32.1805 20.7002 28.5178 22.2595 25.8173 25.035C23.1167 27.8106 21.5996 31.575 21.5996 35.5002C21.5996 39.4254 23.1167 43.1898 25.8173 45.9654C28.5178 48.7409 32.1805 50.3002 35.9996 50.3002ZM25.7972 31.8501C26.4655 29.8831 27.658 28.1485 29.2388 26.844C29.7212 27.6007 30.5528 28.1002 31.4996 28.1002C32.2157 28.1002 32.9024 28.3926 33.4088 28.913C33.9151 29.4334 34.1996 30.1392 34.1996 30.8752V31.8002C34.1996 32.7815 34.5789 33.7226 35.254 34.4165C35.9292 35.1104 36.8448 35.5002 37.7996 35.5002C38.7544 35.5002 39.6701 35.1104 40.3452 34.4165C41.0203 33.7226 41.3996 32.7815 41.3996 31.8002C41.3993 30.9722 41.6693 30.168 42.1663 29.5163C42.6633 28.8646 43.3586 28.4031 44.141 28.2056C45.8588 30.2252 46.8036 32.8177 46.7996 35.5002C46.7996 36.1292 46.7492 36.7489 46.6502 37.3502H44.9996C44.0448 37.3502 43.1292 37.74 42.454 38.4339C41.7789 39.1278 41.3996 40.0689 41.3996 41.0502V45.1146C39.7585 46.0905 37.8956 46.603 35.9996 46.6002V42.9002C35.9996 41.9189 35.6203 40.9778 34.9452 40.2839C34.2701 39.59 33.3544 39.2002 32.3996 39.2002C31.4448 39.2002 30.5292 38.8104 29.854 38.1165C29.1789 37.4226 28.7996 36.4815 28.7996 35.5002C28.7999 34.6251 28.4985 33.7783 27.9488 33.11C27.3991 32.4418 26.6368 31.9954 25.7972 31.8501Z" fill="white"/>
<defs>
<linearGradient id="paint0_linear_814_201" x1="-60.979" y1="28.5331" x2="32.3082" y2="118.644" gradientUnits="userSpaceOnUse">
<stop offset="0.49074" stop-color="#4CA9FF"/>
<stop offset="1" stop-color="#3BF686"/>
</linearGradient>
</defs>
</svg>
