<svg width="512" height="512" viewBox="0 0 512 512" fill="none" xmlns="http://www.w3.org/2000/svg">
<g clip-path="url(#clip0_448_237)">
<path d="M480 448.001H32.0002C14.3264 448.001 0 433.674 0 416.001C0 398.328 14.3264 384.001 32.0002 384.001H480.001C497.674 384.001 512.001 398.328 512.001 416.001C512 433.674 497.674 448.001 480 448.001ZM480 288H32.0002C14.3264 288 0 273.674 0 256.001C0 238.328 14.3264 224.001 32.0002 224.001H480.001C497.674 224.001 512.001 238.327 512.001 256.001C512.001 273.675 497.674 288 480 288ZM480 128H32.0002C14.3264 128 0 113.674 0 96.0002C0 78.3264 14.3264 64 32.0002 64H480.001C497.674 64 512.001 78.3264 512.001 96.0002C512.001 113.674 497.674 128 480 128Z" fill="white"/>
</g>
<defs>
<clipPath id="clip0_448_237">
<rect width="512" height="512" fill="white"/>
</clipPath>
</defs>
</svg>
