<svg width="512" height="512" viewBox="0 0 512 512" fill="none" xmlns="http://www.w3.org/2000/svg">
<path d="M511.499 150.529C510.299 123.324 505.9 104.622 499.597 88.4153C493.096 71.2129 483.094 55.8119 469.991 43.0084C457.187 30.0059 441.684 19.9019 424.68 13.5026C408.381 7.20141 389.775 2.80055 362.571 1.60231C335.163 0.300059 326.462 0 256.948 0C187.435 0 178.734 0.300059 151.428 1.50029C124.224 2.70053 105.521 7.10339 89.3187 13.4006C72.1113 19.9019 56.7103 29.9038 43.9068 43.0084C30.9043 55.8109 20.8053 71.3139 14.4011 88.3173C8.09984 104.622 3.69998 123.224 2.50075 150.427C1.1995 177.836 0.898438 186.536 0.898438 256.05C0.898438 325.564 1.1995 334.265 2.39873 361.571C3.59897 388.776 8.00182 407.478 14.3041 423.685C20.8053 440.887 30.9043 456.288 43.9068 469.092C56.7103 482.094 72.2134 492.198 89.2167 498.597C105.52 504.899 124.122 509.299 151.331 510.498C178.632 511.702 187.338 511.998 256.851 511.998C326.365 511.998 335.066 511.702 362.372 510.498C389.576 509.298 408.279 504.9 424.481 498.597C441.498 492.018 456.952 481.956 469.854 469.055C482.755 456.155 492.818 440.701 499.399 423.685C505.696 407.381 510.1 388.775 511.299 361.571C512.499 334.265 512.799 325.564 512.799 256.05C512.799 186.536 512.697 177.835 511.499 150.529ZM465.392 359.57C464.29 384.575 460.09 398.078 456.589 407.08C447.986 429.384 430.283 447.087 407.978 455.691C398.976 459.192 385.377 463.392 360.469 464.489C333.463 465.693 325.365 465.989 257.05 465.989C188.736 465.989 180.536 465.693 153.627 464.489C128.622 463.392 115.12 459.192 106.118 455.691C95.0188 451.588 84.9159 445.087 76.7143 436.585C68.2126 428.284 61.7113 418.282 57.6085 407.182C54.1078 398.18 49.908 384.575 48.8108 359.672C47.6066 332.667 47.3105 324.563 47.3105 256.249C47.3105 187.935 47.6066 179.734 48.8108 152.831C49.908 127.826 54.1078 114.323 57.6085 105.322C61.7113 94.2174 68.2126 84.1164 76.8163 75.9128C85.1139 67.4112 95.1158 60.9099 106.22 56.8121C115.222 53.3114 128.826 49.1106 153.729 48.0094C180.735 46.8091 188.838 46.5091 257.147 46.5091C325.564 46.5091 333.662 46.8091 360.571 48.0094C385.576 49.1116 399.078 53.3104 408.08 56.8111C419.179 60.9099 429.283 67.4112 437.484 75.9128C445.985 84.2155 452.487 94.2174 456.589 105.322C460.09 114.323 464.29 127.923 465.391 152.831C466.591 179.836 466.891 187.935 466.891 256.249C466.891 324.563 466.592 332.565 465.392 359.57Z" fill="white"/>
<path d="M256.951 124.524C184.339 124.524 125.426 183.434 125.426 256.05C125.426 328.666 184.339 387.576 256.951 387.576C329.566 387.576 388.477 328.666 388.477 256.05C388.477 183.434 329.566 124.524 256.951 124.524ZM256.951 341.367C209.844 341.367 171.633 303.161 171.633 256.05C171.633 208.939 209.844 170.733 256.95 170.733C304.062 170.733 342.268 208.939 342.268 256.05C342.268 303.161 304.061 341.367 256.951 341.367ZM424.386 119.323C424.386 136.28 410.636 150.029 393.676 150.029C376.72 150.029 362.971 136.28 362.971 119.323C362.971 102.364 376.72 88.6191 393.677 88.6191C410.636 88.6191 424.386 102.363 424.386 119.323Z" fill="white"/>
</svg>
