<svg width="512" height="512" viewBox="0 0 512 512" fill="none" xmlns="http://www.w3.org/2000/svg">
<g clip-path="url(#clip0_428_220)">
<path d="M512 256C512 397.385 397.385 512 256 512C125.555 512 17.899 414.438 2.02701 288.298C0.674693 277.585 -0.00231026 266.798 5.92291e-06 256C5.92291e-06 235.959 2.29901 216.451 6.65601 197.736C33.029 84.428 134.656 0 256 0C377.041 0 478.469 84.01 505.135 196.901C508.681 211.886 510.86 227.163 511.645 242.542C511.884 247.024 512.002 251.512 512 256Z" fill="#F2F2F2"/>
<path d="M243.193 276.559V210L185.551 176.721L127.91 210V276.559L185.551 309.838L243.193 276.559Z" fill="#3B8739"/>
<path d="M470.203 266.459L507.767 288.151L470.203 309.843L412.566 276.563V210.003L470.203 176.723L505.134 196.9C508.681 211.885 510.859 227.161 511.644 242.541L490.286 254.871V231.685L470.203 220.097L450.12 231.685V254.871L470.203 266.459Z" fill="#333333"/>
<path d="M481.391 249.739V236.819L470.202 230.359L459.012 236.819V249.739L470.202 256.2L481.391 249.739Z" fill="#66A060"/>
<path d="M100.686 210.004V297.775L62.244 275.843V230.85L43.05 219.763L23.855 230.849V275.842L2.02701 288.298C0.674693 277.585 -0.00231026 266.798 5.92291e-06 256C5.92291e-06 235.959 2.29901 216.451 6.65601 197.736L43.05 176.723L100.686 210.004Z" fill="#333333"/>
<path d="M185.551 176.717L243.191 276.553L185.551 309.832L127.911 209.995L185.551 176.717Z" fill="#6DA75D"/>
<path d="M127.91 276.559L147.702 244.283L127.91 210V276.559Z" fill="#55A344"/>
<path d="M223.981 243.277L243.197 210L185.555 176.721L223.981 243.277Z" fill="#639D57"/>
<path d="M346.553 99.5781V187.882L327.233 176.722L269.586 210.002V276.562L327.233 309.842L384.87 276.562V120.089L346.553 99.5781ZM346.448 254.369L327.232 265.466L308.016 254.369V232.186L327.232 221.089L346.448 232.186V254.369Z" fill="#333333"/>
<path d="M282.15 358.718C282.15 358.718 281.018 348.989 270.611 348.989C260.203 348.989 253.077 350.345 253.077 356.115C253.077 361.885 273.327 361.886 281.02 364.148C288.713 366.41 295.5 372.293 292.106 382.701C288.712 393.109 278.304 394.24 262.24 394.24C246.176 394.24 242.555 380.89 242.555 375.687H251.605C251.605 375.687 250.473 383.831 261.107 385.188C271.741 386.545 281.909 387.309 283.28 379.08C285.09 368.219 248.889 373.65 245.721 363.016C243.045 354.031 244.589 342.202 262.69 340.391C280.791 338.58 290.746 346.572 290.746 358.492L282.15 358.718Z" fill="#66A060"/>
<path d="M194.724 401.131L214.732 412.682C224.785 418.486 237.351 411.231 237.351 399.623V342.128H229.196V397.355C229.196 403.694 222.334 407.657 216.843 404.486L202.878 396.424V337.484L253.921 308.017L304.964 337.484V396.424L253.921 425.891L239.217 417.402L229.615 421.274L253.92 435.307L313.118 401.128V332.777L253.921 298.6L194.723 332.779V401.131H194.724Z" fill="#66A060"/>
</g>
<defs>
<clipPath id="clip0_428_220">
<rect width="512" height="512" fill="white"/>
</clipPath>
</defs>
</svg>
