<svg width="479" height="480" viewBox="0 0 479 480" fill="none" xmlns="http://www.w3.org/2000/svg">
<path fill-rule="evenodd" clip-rule="evenodd" d="M408.54 69.756C363.634 24.7972 303.912 0.02625 240.287 0C109.184 0 2.485 106.696 2.4325 237.835C2.4145 279.756 13.3652 320.677 34.1807 356.748L0.4375 480L126.528 446.923C161.271 465.876 200.386 475.863 240.191 475.875H240.291C371.38 475.875 478.091 369.17 478.14 238.025C478.167 174.469 453.449 114.712 408.54 69.756ZM240.287 435.705H240.205C204.733 435.69 169.943 426.157 139.585 408.148L132.37 403.862L57.5455 423.491L77.5165 350.539L72.814 343.06C53.0245 311.583 42.574 275.203 42.592 237.849C42.6332 128.85 131.321 40.1715 240.367 40.1715C293.171 40.1887 342.809 60.7785 380.133 98.1465C417.457 135.514 438 185.185 437.983 238.01C437.936 347.017 349.255 435.705 240.287 435.705ZM348.727 287.641C342.785 284.665 313.565 270.292 308.115 268.306C302.672 266.323 298.705 265.335 294.747 271.282C290.783 277.23 279.395 290.618 275.927 294.582C272.458 298.549 268.995 299.047 263.051 296.071C257.107 293.097 237.958 286.819 215.256 266.572C197.59 250.813 185.663 231.351 182.195 225.404C178.732 219.451 182.165 216.544 184.802 213.274C191.235 205.285 197.678 196.909 199.658 192.946C201.641 188.978 200.648 185.507 199.16 182.533C197.678 179.56 185.792 150.307 180.841 138.403C176.013 126.82 171.117 128.383 167.467 128.203C164.004 128.029 160.04 127.994 156.077 127.994C152.115 127.994 145.676 129.479 140.227 135.433C134.78 141.383 119.429 155.759 119.429 185.012C119.429 214.265 140.725 242.524 143.696 246.491C146.666 250.459 185.605 310.487 245.221 336.228C259.4 342.357 270.469 346.01 279.103 348.749C293.341 353.272 306.293 352.634 316.535 351.104C327.955 349.396 351.695 336.726 356.651 322.844C361.603 308.962 361.603 297.064 360.114 294.582C358.632 292.104 354.668 290.618 348.727 287.641Z" fill="white"/>
</svg>
