<svg width="363" height="512" viewBox="0 0 363 512" fill="none" xmlns="http://www.w3.org/2000/svg">
<path d="M32.0498 0.00195312C26.1588 0.00195312 21.3828 4.77795 21.3828 10.669V53.336C21.3828 59.227 26.1588 64.003 32.0498 64.003C37.9408 64.003 42.7168 59.227 42.7168 53.336V10.668C42.7168 4.77695 37.9408 0.00195312 32.0498 0.00195312Z" fill="#37474F"/>
<path d="M74.7129 42.668H32.0459C26.1549 42.668 21.3789 37.892 21.3789 32.001C21.3789 26.11 26.1549 21.334 32.0459 21.334H74.7129C80.6039 21.334 85.3799 26.11 85.3799 32.001C85.3799 37.892 80.6049 42.668 74.7129 42.668Z" fill="#37474F"/>
<path d="M74.7139 64.001C68.8229 64.001 64.0469 59.225 64.0469 53.334V10.667C64.0469 4.776 68.8229 0 74.7139 0C80.6049 0 85.3809 4.776 85.3809 10.667V53.334C85.3809 59.225 80.6059 64.001 74.7139 64.001ZM160.048 21.334H117.381C111.49 21.334 106.714 16.558 106.714 10.667C106.714 4.776 111.49 0 117.381 0H160.048C165.939 0 170.715 4.776 170.715 10.667C170.715 16.558 165.939 21.334 160.048 21.334Z" fill="#37474F"/>
<path d="M138.714 64.0013C132.823 64.0013 128.047 59.2253 128.047 53.3343V10.6673C128.047 4.77629 132.823 0.000294003 138.714 0.000294003C144.605 0.000294003 149.381 4.77629 149.381 10.6673V53.3343C149.381 59.2253 144.606 64.0013 138.714 64.0013ZM266.714 64.0013C260.823 64.0013 256.047 59.2253 256.047 53.3343V42.6673L243.247 59.7343C239.369 64.4473 232.405 65.1243 227.692 61.2463C227.14 60.7925 226.634 60.2861 226.18 59.7343L213.38 42.6673V53.3343C213.38 59.2253 208.604 64.0013 202.713 64.0013C196.822 64.0013 192.046 59.2253 192.046 53.3343V10.6673C192.046 4.77629 196.822 0.000294003 202.713 0.000294003C206.07 0.000294003 209.232 1.58129 211.246 4.26729L234.713 35.5423L258.18 4.26729C261.715 -0.445705 268.401 -1.40071 273.113 2.13429C274.438 3.12776 275.513 4.41604 276.254 5.89712C276.994 7.37819 277.38 9.01136 277.38 10.6673V53.3343C277.381 59.2253 272.606 64.0013 266.714 64.0013ZM341.381 64.0013H309.381C303.49 64.0013 298.714 59.2253 298.714 53.3343V10.6673C298.714 4.77629 303.49 0.000294003 309.381 0.000294003C315.272 0.000294003 320.048 4.77629 320.048 10.6673V42.6673H341.381C347.272 42.6673 352.048 47.4433 352.048 53.3343C352.048 59.2253 347.272 64.0013 341.381 64.0013Z" fill="#37474F"/>
<path d="M359.941 110.167C358.942 109.066 357.724 108.186 356.365 107.583C355.005 106.981 353.535 106.669 352.048 106.668H10.7142C4.82317 106.642 0.0261668 111.396 0.000166797 117.287C-0.0018332 117.638 0.0141715 117.988 0.0471715 118.337L32.0472 459.67C32.2489 461.809 33.0921 463.838 34.4662 465.49C35.8403 467.142 37.6813 468.341 39.7482 468.929L189.081 511.596C190.045 511.87 191.044 512.006 192.046 512.001C193.191 512 194.328 511.82 195.417 511.468L323.417 468.801C325.382 468.147 327.114 466.936 328.402 465.314C329.69 463.693 330.478 461.732 330.67 459.67L362.67 118.337C362.809 116.86 362.638 115.371 362.168 113.964C361.698 112.557 360.94 111.264 359.941 110.167Z" fill="#FF5722"/>
<path d="M192.049 426.666C191.06 426.66 190.076 426.517 189.126 426.239L114.46 404.906C112.659 404.394 111.025 403.416 109.722 402.072C108.419 400.727 107.492 399.063 107.036 397.247L96.369 354.58C94.811 348.899 98.154 343.03 103.835 341.472C109.516 339.914 115.385 343.257 116.943 348.938C116.987 349.097 117.026 349.256 117.062 349.417L126.235 386.11L191.814 404.841L246.129 386.729L254.918 298.665H96.049C93.4381 298.686 90.9103 297.749 88.9443 296.03C86.9784 294.312 85.7109 291.933 85.382 289.342L74.715 204.009C73.973 198.165 78.108 192.826 83.952 192.083C84.426 192.023 84.904 191.994 85.381 191.998H288.048C293.939 191.998 298.715 196.774 298.715 202.665C298.715 208.556 293.939 213.332 288.048 213.332H97.457L105.457 277.332H266.716C272.607 277.302 277.406 282.054 277.436 287.945C277.438 288.319 277.42 288.693 277.383 289.065L266.716 395.732C266.513 397.78 265.723 399.726 264.44 401.334C263.157 402.943 261.435 404.146 259.484 404.799L195.484 426.132C194.374 426.491 193.215 426.672 192.049 426.666Z" fill="#FAFAFA"/>
</svg>
