<svg width="512" height="512" viewBox="0 0 512 512" fill="none" xmlns="http://www.w3.org/2000/svg">
<g clip-path="url(#clip0_428_206)">
<path d="M0 0H512V512H0V0Z" fill="#FFDF00"/>
<path d="M343.933 400.003C354.246 416.842 367.664 429.219 391.395 429.219C411.33 429.219 424.065 419.255 424.065 405.488C424.065 388.99 410.981 383.147 389.038 373.549L377.01 368.388C342.291 353.597 319.227 335.067 319.227 295.895C319.227 259.811 346.721 232.342 389.688 232.342C420.278 232.342 442.27 242.988 458.117 270.864L420.652 294.92C412.403 280.129 403.504 274.302 389.688 274.302C375.596 274.302 366.664 283.242 366.664 294.92C366.664 309.354 375.604 315.197 396.246 324.137L408.274 329.289C449.153 346.819 472.233 364.69 472.233 404.87C472.233 448.187 438.205 471.918 392.507 471.918C347.825 471.918 318.958 450.625 304.833 422.717L343.933 400.003ZM173.973 404.172C181.531 417.582 188.407 428.919 204.937 428.919C220.744 428.919 230.716 422.734 230.716 398.687V235.09H278.828V399.336C278.828 449.154 249.62 471.829 206.985 471.829C168.463 471.829 146.155 451.893 134.809 427.882L173.973 404.172Z" fill="black"/>
</g>
<defs>
<clipPath id="clip0_428_206">
<rect width="512" height="512" fill="white"/>
</clipPath>
</defs>
</svg>
