<svg width="512" height="270" viewBox="0 0 512 270" fill="none" xmlns="http://www.w3.org/2000/svg">
<path d="M0 135C0 209.373 114.618 269.666 255.999 269.666C397.382 269.666 512 209.373 512 135C512 60.6283 397.382 0.334481 255.999 0.334481C114.618 0.335732 0 60.6283 0 135Z" fill="url(#paint0_radial_428_211)"/>
<path d="M255.999 259.667C391.859 259.667 501.999 203.851 501.999 134.999C501.999 66.1492 391.859 10.332 255.999 10.332C120.138 10.332 10 66.1492 10 134.999C10 203.852 120.14 259.667 255.999 259.667Z" fill="#777BB3"/>
<path d="M139.087 150.456C150.258 150.456 158.598 148.397 163.874 144.335C169.094 140.315 172.7 133.352 174.59 123.638C176.352 114.558 175.681 108.218 172.594 104.798C169.44 101.304 162.62 99.532 152.323 99.532H134.47L124.573 150.458H139.087V150.456ZM80.6959 213.187C80.2861 213.187 79.8813 213.097 79.5105 212.922C79.1398 212.748 78.8123 212.493 78.5516 212.177C78.291 211.861 78.1036 211.491 78.0029 211.094C77.9023 210.697 77.8909 210.282 77.9696 209.88L104.2 74.9254C104.323 74.2926 104.663 73.7223 105.161 73.3123C105.658 72.9022 106.283 72.6779 106.927 72.6777H163.458C181.225 72.6777 194.45 77.5025 202.761 87.018C211.118 96.5835 213.698 109.956 210.43 126.76C209.101 133.605 206.814 139.964 203.634 145.658C200.45 151.356 196.241 156.629 191.124 161.333C184.996 167.066 178.064 171.224 170.535 173.671C163.125 176.084 153.609 177.309 142.25 177.309H119.358L112.821 210.939C112.698 211.572 112.358 212.142 111.861 212.552C111.363 212.962 110.739 213.187 110.094 213.187H80.6959Z" fill="black"/>
<path d="M136.765 102.308H152.327C164.754 102.308 169.071 105.036 170.539 106.66C172.972 109.358 173.43 115.048 171.868 123.111C170.11 132.138 166.852 138.54 162.184 142.134C157.405 145.814 149.634 147.678 139.09 147.678H127.948L136.765 102.308ZM163.459 69.9004H106.927C105.638 69.9004 104.389 70.349 103.394 71.1692C102.399 71.9894 101.721 73.1301 101.475 74.3958L75.2463 209.351C75.0902 210.155 75.1139 210.984 75.3157 211.778C75.5175 212.572 75.8924 213.311 76.4135 213.943C76.9345 214.576 77.5889 215.085 78.3298 215.434C79.0707 215.784 79.8796 215.965 80.6988 215.965H110.096C111.386 215.965 112.635 215.517 113.631 214.697C114.626 213.877 115.305 212.736 115.551 211.47L121.65 180.086H142.252C153.902 180.086 163.709 178.815 171.399 176.311C179.307 173.742 186.583 169.386 193.023 163.363C198.349 158.464 202.736 152.963 206.06 147.013C209.385 141.063 211.774 134.426 213.159 127.289C216.599 109.601 213.805 95.4371 204.854 85.1918C195.992 75.0456 182.063 69.9004 163.459 69.9004ZM121.208 153.234H139.09C150.943 153.234 159.771 151.001 165.572 146.536C171.374 142.069 175.287 134.614 177.32 124.169C179.264 114.14 178.378 107.062 174.662 102.938C170.939 98.8142 163.495 96.7527 152.327 96.7527H132.185L121.208 153.234ZM163.459 75.4561C180.466 75.4561 192.873 79.9194 200.67 88.8462C208.468 97.7729 210.816 110.233 207.706 126.23C206.425 132.82 204.258 138.845 201.21 144.303C198.157 149.764 194.171 154.759 189.245 159.289C183.374 164.783 176.855 168.697 169.678 171.029C162.502 173.367 153.362 174.53 142.252 174.53H117.07L110.096 210.409H80.6988L106.927 75.4571L163.459 75.4561Z" fill="white"/>
<path d="M277.834 177.309C277.425 177.309 277.02 177.219 276.649 177.044C276.279 176.869 275.951 176.614 275.69 176.298C275.43 175.982 275.242 175.612 275.141 175.215C275.041 174.818 275.029 174.403 275.107 174.001L286.711 114.289C287.814 108.611 287.542 104.535 285.944 102.813C284.967 101.76 282.03 99.9949 273.346 99.9949H252.326L237.738 175.061C237.615 175.694 237.276 176.264 236.778 176.675C236.28 177.085 235.656 177.309 235.011 177.309H205.845C205.435 177.309 205.03 177.219 204.66 177.044C204.289 176.869 203.962 176.614 203.701 176.298C203.44 175.982 203.253 175.612 203.152 175.215C203.051 174.818 203.039 174.403 203.118 174.001L229.346 39.0465C229.469 38.4137 229.809 37.8434 230.306 37.4334C230.804 37.0233 231.429 36.799 232.073 36.7988H261.239C261.649 36.7983 262.054 36.8886 262.425 37.0632C262.796 37.2378 263.124 37.4924 263.384 37.8087C263.645 38.125 263.833 38.4951 263.933 38.8924C264.034 39.2898 264.045 39.7045 263.967 40.1068L257.637 72.678H280.25C297.477 72.678 309.159 75.7157 315.962 81.9632C322.898 88.3368 325.06 98.5291 322.395 112.259L310.19 175.058C310.067 175.691 309.728 176.261 309.231 176.671C308.733 177.081 308.109 177.306 307.464 177.306H277.834V177.309Z" fill="black"/>
<path d="M261.24 34.0215H232.074C230.785 34.0215 229.535 34.47 228.54 35.2902C227.545 36.1104 226.867 37.2511 226.621 38.5169L200.391 173.472C200.235 174.277 200.258 175.106 200.46 175.9C200.662 176.694 201.037 177.434 201.558 178.066C202.08 178.698 202.734 179.207 203.476 179.556C204.217 179.905 205.026 180.086 205.846 180.086H235.011C236.3 180.086 237.55 179.638 238.545 178.818C239.54 177.997 240.219 176.857 240.465 175.591L254.616 102.772H273.347C282.015 102.772 283.835 104.624 283.907 104.704C284.433 105.269 285.126 107.889 283.985 113.759L272.381 173.471C272.224 174.276 272.248 175.105 272.45 175.899C272.652 176.693 273.027 177.433 273.548 178.065C274.069 178.697 274.724 179.206 275.465 179.555C276.206 179.904 277.016 180.085 277.835 180.085H307.465C308.754 180.085 310.004 179.637 310.999 178.817C311.994 177.996 312.673 176.856 312.919 175.59L325.121 112.789C327.985 98.0475 325.536 86.9892 317.842 79.9177C310.501 73.1766 298.205 69.8996 280.251 69.8996H261.007L266.694 40.6354C266.85 39.8314 266.826 39.0027 266.625 38.2088C266.423 37.4149 266.049 36.6753 265.528 36.0429C265.007 35.4108 264.352 34.9019 263.61 34.5524C262.869 34.203 262.06 34.0217 261.24 34.0215ZM261.24 39.5772L254.267 75.4563H280.251C296.601 75.4563 307.876 78.3098 314.083 84.0106C320.289 89.7135 322.148 98.9556 319.669 111.731L307.465 174.531H277.835L289.438 114.82C290.759 108.027 290.273 103.394 287.981 100.923C285.688 98.453 280.809 97.2165 273.348 97.2165H250.037L235.013 174.531H205.847L232.075 39.5772H261.24Z" fill="white"/>
<path d="M368.546 150.457C379.716 150.457 388.056 148.398 393.333 144.336C398.553 140.318 402.158 133.355 404.049 123.639C405.812 114.559 405.141 108.219 402.054 104.799C398.899 101.305 392.08 99.533 381.784 99.533H363.931L354.034 150.459H368.546V150.457ZM310.153 213.188C309.744 213.188 309.339 213.097 308.968 212.923C308.598 212.748 308.27 212.493 308.009 212.177C307.749 211.861 307.561 211.491 307.46 211.094C307.36 210.697 307.348 210.282 307.426 209.88L333.656 74.9254C333.779 74.2924 334.119 73.722 334.616 73.312C335.114 72.9019 335.739 72.6777 336.384 72.6777H392.915C410.682 72.6777 423.905 77.5025 432.218 87.018C440.574 96.5825 443.153 109.954 439.888 126.759C438.556 133.605 436.269 139.964 433.089 145.657C429.906 151.356 425.696 156.629 420.579 161.333C414.453 167.066 407.52 171.224 399.991 173.67C392.581 176.084 383.064 177.309 371.705 177.309H348.814L342.28 210.94C342.157 211.573 341.817 212.144 341.32 212.554C340.822 212.964 340.197 213.188 339.552 213.188H310.153Z" fill="black"/>
<path d="M366.221 102.308H381.784C394.211 102.308 398.527 105.036 399.994 106.66C402.429 109.358 402.887 115.048 401.324 123.109C399.566 132.138 396.308 138.54 391.641 142.134C386.861 145.814 379.091 147.678 368.546 147.678H357.405L366.221 102.308ZM392.915 69.9004H336.385C335.096 69.9004 333.847 70.349 332.852 71.1692C331.857 71.9894 331.179 73.1301 330.933 74.3958L304.703 209.351C304.547 210.155 304.571 210.984 304.773 211.778C304.975 212.572 305.349 213.311 305.87 213.943C306.392 214.576 307.046 215.085 307.787 215.434C308.528 215.784 309.337 215.965 310.156 215.965H339.554C340.844 215.965 342.093 215.516 343.088 214.696C344.083 213.876 344.762 212.735 345.008 211.47L351.106 180.086H371.708C383.358 180.086 393.165 178.815 400.855 176.311C408.763 173.742 416.041 169.384 422.481 163.361C427.807 158.462 432.193 152.963 435.517 147.013C438.843 141.063 441.232 134.426 442.617 127.289C446.057 109.6 443.263 95.4351 434.312 85.1908C425.449 75.0456 411.522 69.9014 392.917 69.9014M350.667 153.234H368.548C380.4 153.234 389.229 151.001 395.03 146.536C400.833 142.069 404.744 134.614 406.777 124.169C408.723 114.14 407.837 107.062 404.119 102.938C400.397 98.8142 392.953 96.7527 381.785 96.7527H361.642L350.667 153.234ZM392.917 75.4561C409.924 75.4561 422.33 79.9194 430.128 88.8462C437.927 97.7729 440.272 110.233 437.163 126.23C435.882 132.82 433.717 138.845 430.667 144.303C427.615 149.764 423.628 154.759 418.702 159.289C412.832 164.783 406.312 168.697 399.136 171.029C391.959 173.367 382.82 174.53 371.709 174.53H346.528L339.555 210.409H310.158L336.386 75.4571L392.917 75.4561Z" fill="white"/>
<defs>
<radialGradient id="paint0_radial_428_211" cx="0" cy="0" r="1" gradientUnits="userSpaceOnUse" gradientTransform="translate(153.791 47.9837) scale(420.291 420.291)">
<stop stop-color="#AEB2D5"/>
<stop offset="0.3" stop-color="#AEB2D5"/>
<stop offset="0.75" stop-color="#484C89"/>
<stop offset="1" stop-color="#484C89"/>
</radialGradient>
</defs>
</svg>
